<mxfile host="Electron" agent="Mozilla/5.0 (Windows NT 10.0; Win64; x64) AppleWebKit/537.36 (KHTML, like Gecko) draw.io/28.0.4 Chrome/138.0.7204.97 Electron/37.2.1 Safari/537.36" version="28.0.4">
  <diagram name="Page-1" id="ZyP62Z5Q_V4fgqqx-iI3">
    <mxGraphModel dx="4168" dy="2640" grid="1" gridSize="10" guides="1" tooltips="1" connect="1" arrows="1" fold="1" page="1" pageScale="1" pageWidth="850" pageHeight="1100" math="0" shadow="0">
      <root>
        <mxCell id="0" />
        <mxCell id="1" parent="0" />
        <mxCell id="eDzkyQGFLZuuTqPz9SH3-3" style="edgeStyle=orthogonalEdgeStyle;rounded=0;orthogonalLoop=1;jettySize=auto;html=1;fillColor=#d5e8d4;strokeColor=#82b366;strokeWidth=3;" edge="1" parent="1" source="FPDdRhnp6goipjoe5qOt-1" target="FPDdRhnp6goipjoe5qOt-72">
          <mxGeometry relative="1" as="geometry">
            <Array as="points">
              <mxPoint x="710" y="280" />
              <mxPoint x="710" y="1225" />
            </Array>
          </mxGeometry>
        </mxCell>
        <mxCell id="FPDdRhnp6goipjoe5qOt-1" value="Window Title" style="strokeWidth=1;shadow=0;dashed=0;align=center;html=1;shape=mxgraph.mockup.containers.window;align=left;verticalAlign=top;spacingLeft=8;strokeColor2=#008cff;strokeColor3=#c4c4c4;fontColor=#666666;mainText=;fontSize=17;labelBackgroundColor=none;whiteSpace=wrap;" parent="1" vertex="1">
          <mxGeometry x="90.25" y="90" width="550" height="380" as="geometry" />
        </mxCell>
        <mxCell id="FPDdRhnp6goipjoe5qOt-2" value="&lt;font style=&quot;font-size: 15px;&quot;&gt;The Vintage Car Forum&lt;/font&gt;" style="text;html=1;align=center;verticalAlign=middle;whiteSpace=wrap;rounded=0;" parent="1" vertex="1">
          <mxGeometry x="100.25" y="130" width="200" height="30" as="geometry" />
        </mxCell>
        <mxCell id="FPDdRhnp6goipjoe5qOt-3" value="" style="rounded=0;whiteSpace=wrap;html=1;" parent="1" vertex="1">
          <mxGeometry x="196.75" y="197" width="335" height="223" as="geometry" />
        </mxCell>
        <mxCell id="FPDdRhnp6goipjoe5qOt-4" value="MEMBER LOGIN" style="text;html=1;align=center;verticalAlign=middle;whiteSpace=wrap;rounded=0;" parent="1" vertex="1">
          <mxGeometry x="300.25" y="208" width="130" height="30" as="geometry" />
        </mxCell>
        <mxCell id="FPDdRhnp6goipjoe5qOt-6" value="" style="rounded=1;whiteSpace=wrap;html=1;" parent="1" vertex="1">
          <mxGeometry x="350.25" y="246" width="150" height="30" as="geometry" />
        </mxCell>
        <mxCell id="FPDdRhnp6goipjoe5qOt-7" value="" style="rounded=1;whiteSpace=wrap;html=1;" parent="1" vertex="1">
          <mxGeometry x="350.25" y="286" width="150" height="30" as="geometry" />
        </mxCell>
        <mxCell id="FPDdRhnp6goipjoe5qOt-8" value="&lt;font style=&quot;font-size: 14px;&quot;&gt;Username:&lt;/font&gt;" style="text;html=1;align=center;verticalAlign=middle;whiteSpace=wrap;rounded=0;" parent="1" vertex="1">
          <mxGeometry x="250.25" y="246" width="60" height="30" as="geometry" />
        </mxCell>
        <mxCell id="FPDdRhnp6goipjoe5qOt-10" value="&lt;font style=&quot;font-size: 14px;&quot;&gt;Password:&lt;/font&gt;" style="text;html=1;align=center;verticalAlign=middle;whiteSpace=wrap;rounded=0;" parent="1" vertex="1">
          <mxGeometry x="250.25" y="286" width="60" height="30" as="geometry" />
        </mxCell>
        <mxCell id="FPDdRhnp6goipjoe5qOt-12" value="&lt;font style=&quot;font-size: 14px;&quot;&gt;Login&lt;/font&gt;" style="rounded=1;html=1;shadow=0;dashed=0;whiteSpace=wrap;fontSize=10;fillColor=#E6E6E6;align=center;strokeColor=#E6E6E6;fontColor=#333333;" parent="1" vertex="1">
          <mxGeometry x="390.25" y="350" width="85.5" height="30" as="geometry" />
        </mxCell>
        <mxCell id="FPDdRhnp6goipjoe5qOt-14" value="&lt;font style=&quot;font-size: 14px;&quot;&gt;Register&lt;/font&gt;" style="rounded=1;html=1;shadow=0;dashed=0;whiteSpace=wrap;fontSize=10;fillColor=#E6E6E6;align=center;strokeColor=#E6E6E6;fontColor=#333333;" parent="1" vertex="1">
          <mxGeometry x="250.25" y="350" width="85.5" height="30" as="geometry" />
        </mxCell>
        <mxCell id="FPDdRhnp6goipjoe5qOt-15" value="Dont have an account yet?" style="text;html=1;align=center;verticalAlign=middle;resizable=0;points=[];autosize=1;strokeColor=none;fillColor=none;" parent="1" vertex="1">
          <mxGeometry x="196.75" y="320" width="170" height="30" as="geometry" />
        </mxCell>
        <mxCell id="FPDdRhnp6goipjoe5qOt-17" value="[ Error message here, ig login fails]" style="text;html=1;align=center;verticalAlign=middle;whiteSpace=wrap;rounded=0;" parent="1" vertex="1">
          <mxGeometry x="270.25" y="390" width="190" height="30" as="geometry" />
        </mxCell>
        <mxCell id="FPDdRhnp6goipjoe5qOt-18" value="Window Title" style="strokeWidth=1;shadow=0;dashed=0;align=center;html=1;shape=mxgraph.mockup.containers.window;align=left;verticalAlign=top;spacingLeft=8;strokeColor2=#008cff;strokeColor3=#c4c4c4;fontColor=#666666;mainText=;fontSize=17;labelBackgroundColor=none;whiteSpace=wrap;" parent="1" vertex="1">
          <mxGeometry x="90.75" y="520" width="550" height="380" as="geometry" />
        </mxCell>
        <mxCell id="FPDdRhnp6goipjoe5qOt-19" value="&lt;font style=&quot;font-size: 15px;&quot;&gt;The Vintage Car Forum&lt;/font&gt;" style="text;html=1;align=center;verticalAlign=middle;whiteSpace=wrap;rounded=0;" parent="1" vertex="1">
          <mxGeometry x="100.75" y="568" width="200" height="30" as="geometry" />
        </mxCell>
        <mxCell id="FPDdRhnp6goipjoe5qOt-20" value="" style="rounded=0;whiteSpace=wrap;html=1;" parent="1" vertex="1">
          <mxGeometry x="198.25" y="610" width="335" height="270" as="geometry" />
        </mxCell>
        <mxCell id="FPDdRhnp6goipjoe5qOt-21" value="&lt;font style=&quot;font-size: 14px;&quot;&gt;Register to The Vintage Car Forum&lt;/font&gt;" style="text;html=1;align=center;verticalAlign=middle;whiteSpace=wrap;rounded=0;" parent="1" vertex="1">
          <mxGeometry x="250.75" y="625" width="240" height="30" as="geometry" />
        </mxCell>
        <mxCell id="FPDdRhnp6goipjoe5qOt-22" value="&lt;font style=&quot;font-size: 14px;&quot;&gt;Username: _________[&lt;/font&gt;&lt;font size=&quot;1&quot; style=&quot;&quot;&gt;Error if invalid]&lt;/font&gt;" style="text;html=1;align=center;verticalAlign=middle;whiteSpace=wrap;rounded=0;" parent="1" vertex="1">
          <mxGeometry x="260.75" y="655" width="230" height="30" as="geometry" />
        </mxCell>
        <mxCell id="FPDdRhnp6goipjoe5qOt-24" value="&lt;font style=&quot;font-size: 14px;&quot;&gt;Email:&amp;nbsp;&lt;/font&gt;&lt;font style=&quot;font-size: 14px;&quot;&gt;_________[&lt;/font&gt;&lt;font size=&quot;1&quot;&gt;Error if invalid]&lt;/font&gt;" style="text;html=1;align=center;verticalAlign=middle;whiteSpace=wrap;rounded=0;" parent="1" vertex="1">
          <mxGeometry x="260.75" y="685" width="230" height="30" as="geometry" />
        </mxCell>
        <mxCell id="FPDdRhnp6goipjoe5qOt-25" value="&lt;font style=&quot;font-size: 14px;&quot;&gt;Password:&lt;/font&gt;&lt;font style=&quot;font-size: 14px;&quot;&gt;_________[&lt;/font&gt;&lt;font size=&quot;1&quot;&gt;Error if invalid]&lt;/font&gt;" style="text;html=1;align=center;verticalAlign=middle;whiteSpace=wrap;rounded=0;" parent="1" vertex="1">
          <mxGeometry x="255.75" y="715" width="230" height="30" as="geometry" />
        </mxCell>
        <mxCell id="FPDdRhnp6goipjoe5qOt-27" value="&lt;font style=&quot;font-size: 14px;&quot;&gt;Confirm Password:&lt;/font&gt;&lt;font style=&quot;font-size: 14px;&quot;&gt;_________[&lt;/font&gt;&lt;font size=&quot;1&quot;&gt;Error if invalid]&lt;/font&gt;" style="text;html=1;align=center;verticalAlign=middle;whiteSpace=wrap;rounded=0;" parent="1" vertex="1">
          <mxGeometry x="235.75" y="740" width="270" height="30" as="geometry" />
        </mxCell>
        <mxCell id="FPDdRhnp6goipjoe5qOt-31" value="I accept the Terms and Conditions" style="rounded=1;fillColor=#F0F2F5;strokeColor=#D8DCE3;align=left;verticalAlign=middle;fontStyle=0;fontSize=12;labelPosition=right;verticalLabelPosition=middle;spacingLeft=10;html=1;shadow=0;dashed=0;arcSize=50;" parent="1" vertex="1">
          <mxGeometry x="276.25" y="778" width="12" height="12" as="geometry" />
        </mxCell>
        <mxCell id="FPDdRhnp6goipjoe5qOt-33" value="&lt;font style=&quot;font-size: 14px;&quot;&gt;Register&lt;/font&gt;" style="rounded=1;html=1;shadow=0;dashed=0;whiteSpace=wrap;fontSize=10;fillColor=#E6E6E6;align=center;strokeColor=#E6E6E6;fontColor=#333333;" parent="1" vertex="1">
          <mxGeometry x="333" y="800" width="85.5" height="30" as="geometry" />
        </mxCell>
        <mxCell id="FPDdRhnp6goipjoe5qOt-34" value="Already have an account?" style="text;html=1;align=center;verticalAlign=middle;resizable=0;points=[];autosize=1;strokeColor=none;fillColor=none;" parent="1" vertex="1">
          <mxGeometry x="230.75" y="840" width="160" height="30" as="geometry" />
        </mxCell>
        <mxCell id="FPDdRhnp6goipjoe5qOt-35" value="&lt;font style=&quot;font-size: 14px;&quot;&gt;Login&lt;/font&gt;" style="rounded=1;html=1;shadow=0;dashed=0;whiteSpace=wrap;fontSize=10;fillColor=#E6E6E6;align=center;strokeColor=#E6E6E6;fontColor=#333333;" parent="1" vertex="1">
          <mxGeometry x="390.75" y="845" width="85.5" height="20" as="geometry" />
        </mxCell>
        <mxCell id="FPDdRhnp6goipjoe5qOt-38" value="Window Title" style="strokeWidth=1;shadow=0;dashed=0;align=center;html=1;shape=mxgraph.mockup.containers.window;align=left;verticalAlign=top;spacingLeft=8;strokeColor2=#008cff;strokeColor3=#c4c4c4;fontColor=#666666;mainText=;fontSize=17;labelBackgroundColor=none;whiteSpace=wrap;" parent="1" vertex="1">
          <mxGeometry x="87.25" y="980" width="550" height="380" as="geometry" />
        </mxCell>
        <mxCell id="FPDdRhnp6goipjoe5qOt-40" value="" style="rounded=0;whiteSpace=wrap;html=1;" parent="1" vertex="1">
          <mxGeometry x="87.25" y="1010" width="550" height="60" as="geometry" />
        </mxCell>
        <mxCell id="FPDdRhnp6goipjoe5qOt-39" value="&lt;font style=&quot;font-size: 15px;&quot;&gt;The Vintage Car Forum&lt;/font&gt;" style="text;html=1;align=center;verticalAlign=middle;whiteSpace=wrap;rounded=0;" parent="1" vertex="1">
          <mxGeometry x="97.25" y="1025" width="200" height="30" as="geometry" />
        </mxCell>
        <mxCell id="FPDdRhnp6goipjoe5qOt-41" value="Logged in as: [Username]" style="text;html=1;align=center;verticalAlign=middle;whiteSpace=wrap;rounded=0;" parent="1" vertex="1">
          <mxGeometry x="329.5" y="1025" width="160" height="30" as="geometry" />
        </mxCell>
        <mxCell id="FPDdRhnp6goipjoe5qOt-42" value="&lt;font style=&quot;font-size: 12px;&quot;&gt;Logout&lt;/font&gt;" style="rounded=1;html=1;shadow=0;dashed=0;whiteSpace=wrap;fontSize=10;fillColor=#E6E6E6;align=center;strokeColor=#E6E6E6;fontColor=#333333;" parent="1" vertex="1">
          <mxGeometry x="517.25" y="1030" width="85.5" height="20" as="geometry" />
        </mxCell>
        <mxCell id="FPDdRhnp6goipjoe5qOt-67" value="Categories" style="html=1;shadow=0;dashed=0;shape=mxgraph.bootstrap.rrect;rSize=5;strokeColor=none;strokeWidth=1;fillColor=#6C767D;fontColor=#ffffff;whiteSpace=wrap;align=center;verticalAlign=middle;fontStyle=0;fontSize=14;spacingLeft=10;spacingRight=20;" parent="1" vertex="1">
          <mxGeometry x="157.25" y="1150" width="415" height="30" as="geometry" />
        </mxCell>
        <mxCell id="FPDdRhnp6goipjoe5qOt-68" value="" style="shape=triangle;direction=south;fillColor=#ffffff;strokeColor=none;perimeter=none;" parent="FPDdRhnp6goipjoe5qOt-67" vertex="1">
          <mxGeometry x="1" y="0.5" width="10" height="5" relative="1" as="geometry">
            <mxPoint x="-17" y="-2.5" as="offset" />
          </mxGeometry>
        </mxCell>
        <mxCell id="FPDdRhnp6goipjoe5qOt-69" value="" style="swimlane;container=1;shape=mxgraph.bootstrap.rrect;rSize=5;strokeColor=#999999;fillColor=#ffffff;fontStyle=0;childLayout=stackLayout;horizontal=1;startSize=0;horizontalStack=0;resizeParent=1;resizeParentMax=0;resizeLast=0;collapsible=0;marginBottom=0;whiteSpace=wrap;html=1;" parent="1" vertex="1">
          <mxGeometry x="160.25" y="1180" width="410" height="150" as="geometry" />
        </mxCell>
        <mxCell id="FPDdRhnp6goipjoe5qOt-71" value="Classic American Cars" style="text;align=center;verticalAlign=middle;spacingLeft=10;spacingRight=10;overflow=hidden;points=[[0,0.5],[1,0.5]];portConstraint=eastwest;rotatable=0;whiteSpace=wrap;html=1;fontColor=inherit;fontSize=14;fontStyle=0;" parent="FPDdRhnp6goipjoe5qOt-69" vertex="1">
          <mxGeometry width="410" height="30" as="geometry" />
        </mxCell>
        <mxCell id="FPDdRhnp6goipjoe5qOt-72" value="European Classics" style="text;align=center;verticalAlign=middle;spacingLeft=10;spacingRight=10;overflow=hidden;points=[[0,0.5],[1,0.5]];portConstraint=eastwest;rotatable=0;whiteSpace=wrap;html=1;fontColor=inherit;fontSize=14;fontStyle=0;" parent="FPDdRhnp6goipjoe5qOt-69" vertex="1">
          <mxGeometry y="30" width="410" height="30" as="geometry" />
        </mxCell>
        <mxCell id="FPDdRhnp6goipjoe5qOt-73" value="Muscle Cars" style="text;align=center;verticalAlign=middle;spacingLeft=10;spacingRight=10;overflow=hidden;points=[[0,0.5],[1,0.5]];portConstraint=eastwest;rotatable=0;whiteSpace=wrap;html=1;fontColor=inherit;fontSize=14;fontStyle=0;" parent="FPDdRhnp6goipjoe5qOt-69" vertex="1">
          <mxGeometry y="60" width="410" height="30" as="geometry" />
        </mxCell>
        <mxCell id="FPDdRhnp6goipjoe5qOt-75" value="Vintage Sports Cars" style="text;align=center;verticalAlign=middle;spacingLeft=10;spacingRight=10;overflow=hidden;points=[[0,0.5],[1,0.5]];portConstraint=eastwest;rotatable=0;whiteSpace=wrap;html=1;fontColor=inherit;fontSize=14;fontStyle=0;" parent="FPDdRhnp6goipjoe5qOt-69" vertex="1">
          <mxGeometry y="90" width="410" height="30" as="geometry" />
        </mxCell>
        <mxCell id="FPDdRhnp6goipjoe5qOt-76" value="Antique Cars" style="text;align=center;verticalAlign=middle;spacingLeft=10;spacingRight=10;overflow=hidden;points=[[0,0.5],[1,0.5]];portConstraint=eastwest;rotatable=0;whiteSpace=wrap;html=1;fontColor=inherit;fontSize=14;fontStyle=0;" parent="FPDdRhnp6goipjoe5qOt-69" vertex="1">
          <mxGeometry y="120" width="410" height="30" as="geometry" />
        </mxCell>
        <mxCell id="FPDdRhnp6goipjoe5qOt-77" value="&lt;font style=&quot;font-size: 14px;&quot;&gt;Select a Category to view its questions:&lt;/font&gt;" style="text;html=1;align=center;verticalAlign=middle;whiteSpace=wrap;rounded=0;" parent="1" vertex="1">
          <mxGeometry x="167.25" y="1098" width="400" height="30" as="geometry" />
        </mxCell>
        <mxCell id="FPDdRhnp6goipjoe5qOt-78" value="Window Title" style="strokeWidth=1;shadow=0;dashed=0;align=center;html=1;shape=mxgraph.mockup.containers.window;align=left;verticalAlign=top;spacingLeft=8;strokeColor2=#008cff;strokeColor3=#c4c4c4;fontColor=#666666;mainText=;fontSize=17;labelBackgroundColor=none;whiteSpace=wrap;" parent="1" vertex="1">
          <mxGeometry x="91.75" y="1470" width="550" height="380" as="geometry" />
        </mxCell>
        <mxCell id="FPDdRhnp6goipjoe5qOt-79" value="" style="rounded=0;whiteSpace=wrap;html=1;" parent="1" vertex="1">
          <mxGeometry x="88.5" y="1440" width="550" height="60" as="geometry" />
        </mxCell>
        <mxCell id="FPDdRhnp6goipjoe5qOt-80" value="&lt;font style=&quot;font-size: 15px;&quot;&gt;The Vintage Car Forum&lt;/font&gt;" style="text;html=1;align=center;verticalAlign=middle;whiteSpace=wrap;rounded=0;" parent="1" vertex="1">
          <mxGeometry x="98.5" y="1455" width="200" height="30" as="geometry" />
        </mxCell>
        <mxCell id="FPDdRhnp6goipjoe5qOt-81" value="Logged in as: [Username]" style="text;html=1;align=center;verticalAlign=middle;whiteSpace=wrap;rounded=0;" parent="1" vertex="1">
          <mxGeometry x="330.75" y="1455" width="160" height="30" as="geometry" />
        </mxCell>
        <mxCell id="FPDdRhnp6goipjoe5qOt-82" value="&lt;font style=&quot;font-size: 12px;&quot;&gt;Logout&lt;/font&gt;" style="rounded=1;html=1;shadow=0;dashed=0;whiteSpace=wrap;fontSize=10;fillColor=#E6E6E6;align=center;strokeColor=#E6E6E6;fontColor=#333333;" parent="1" vertex="1">
          <mxGeometry x="518.5" y="1460" width="85.5" height="20" as="geometry" />
        </mxCell>
        <mxCell id="FPDdRhnp6goipjoe5qOt-83" value="Categories" style="html=1;shadow=0;dashed=0;shape=mxgraph.bootstrap.rrect;rSize=5;strokeColor=none;strokeWidth=1;fillColor=#6C767D;fontColor=#ffffff;whiteSpace=wrap;align=center;verticalAlign=middle;fontStyle=0;fontSize=14;spacingLeft=10;spacingRight=20;" parent="1" vertex="1">
          <mxGeometry x="158.5" y="1520" width="415" height="30" as="geometry" />
        </mxCell>
        <mxCell id="FPDdRhnp6goipjoe5qOt-84" value="" style="shape=triangle;direction=south;fillColor=#ffffff;strokeColor=none;perimeter=none;" parent="FPDdRhnp6goipjoe5qOt-83" vertex="1">
          <mxGeometry x="1" y="0.5" width="10" height="5" relative="1" as="geometry">
            <mxPoint x="-17" y="-2.5" as="offset" />
          </mxGeometry>
        </mxCell>
        <mxCell id="FPDdRhnp6goipjoe5qOt-85" value="" style="swimlane;container=1;shape=mxgraph.bootstrap.rrect;rSize=5;strokeColor=#999999;fillColor=#ffffff;fontStyle=0;childLayout=stackLayout;horizontal=1;startSize=0;horizontalStack=0;resizeParent=1;resizeParentMax=0;resizeLast=0;collapsible=0;marginBottom=0;whiteSpace=wrap;html=1;" parent="1" vertex="1">
          <mxGeometry x="161.5" y="1550" width="410" height="90" as="geometry" />
        </mxCell>
        <mxCell id="FPDdRhnp6goipjoe5qOt-86" value="Classic American Cars [selected]" style="text;align=center;verticalAlign=middle;spacingLeft=10;spacingRight=10;overflow=hidden;points=[[0,0.5],[1,0.5]];portConstraint=eastwest;rotatable=0;whiteSpace=wrap;html=1;fontColor=inherit;fontSize=14;fontStyle=0;" parent="FPDdRhnp6goipjoe5qOt-85" vertex="1">
          <mxGeometry width="410" height="30" as="geometry" />
        </mxCell>
        <mxCell id="FPDdRhnp6goipjoe5qOt-87" value="European Classics" style="text;align=center;verticalAlign=middle;spacingLeft=10;spacingRight=10;overflow=hidden;points=[[0,0.5],[1,0.5]];portConstraint=eastwest;rotatable=0;whiteSpace=wrap;html=1;fontColor=inherit;fontSize=14;fontStyle=0;" parent="FPDdRhnp6goipjoe5qOt-85" vertex="1">
          <mxGeometry y="30" width="410" height="30" as="geometry" />
        </mxCell>
        <mxCell id="FPDdRhnp6goipjoe5qOt-88" value="..." style="text;align=center;verticalAlign=middle;spacingLeft=10;spacingRight=10;overflow=hidden;points=[[0,0.5],[1,0.5]];portConstraint=eastwest;rotatable=0;whiteSpace=wrap;html=1;fontColor=inherit;fontSize=14;fontStyle=0;" parent="FPDdRhnp6goipjoe5qOt-85" vertex="1">
          <mxGeometry y="60" width="410" height="30" as="geometry" />
        </mxCell>
        <mxCell id="FPDdRhnp6goipjoe5qOt-92" value="&lt;font style=&quot;font-size: 14px;&quot;&gt;Questions:&lt;/font&gt;&lt;div style=&quot;text-align: left;&quot;&gt;&lt;font style=&quot;font-size: 14px;&quot;&gt;1. What is the best engine for a 1967 Mustang&lt;/font&gt;&lt;/div&gt;&lt;div style=&quot;text-align: left;&quot;&gt;&lt;font style=&quot;font-size: 14px;&quot;&gt;2. How to restore vintage chrome parts?&lt;/font&gt;&lt;/div&gt;&lt;div style=&quot;text-align: left;&quot;&gt;&lt;font style=&quot;font-size: 14px;&quot;&gt;3. Tips for maintaining antique car interiors?&lt;/font&gt;&lt;/div&gt;" style="text;html=1;align=center;verticalAlign=middle;whiteSpace=wrap;rounded=0;" parent="1" vertex="1">
          <mxGeometry x="196" y="1650" width="353.5" height="80" as="geometry" />
        </mxCell>
        <mxCell id="FPDdRhnp6goipjoe5qOt-93" value="&lt;font style=&quot;font-size: 13px;&quot;&gt;[New Question]&lt;/font&gt;" style="text;html=1;align=center;verticalAlign=middle;whiteSpace=wrap;rounded=0;" parent="1" vertex="1">
          <mxGeometry x="307.25" y="1740" width="110" height="30" as="geometry" />
        </mxCell>
        <mxCell id="FPDdRhnp6goipjoe5qOt-94" value="Window Title" style="strokeWidth=1;shadow=0;dashed=0;align=center;html=1;shape=mxgraph.mockup.containers.window;align=left;verticalAlign=top;spacingLeft=8;strokeColor2=#008cff;strokeColor3=#c4c4c4;fontColor=#666666;mainText=;fontSize=17;labelBackgroundColor=none;whiteSpace=wrap;" parent="1" vertex="1">
          <mxGeometry x="90.25" y="1930" width="550" height="380" as="geometry" />
        </mxCell>
        <mxCell id="FPDdRhnp6goipjoe5qOt-95" value="" style="rounded=0;whiteSpace=wrap;html=1;" parent="1" vertex="1">
          <mxGeometry x="90.25" y="1960" width="550" height="60" as="geometry" />
        </mxCell>
        <mxCell id="FPDdRhnp6goipjoe5qOt-96" value="&lt;font style=&quot;font-size: 15px;&quot;&gt;The Vintage Car Forum&lt;/font&gt;" style="text;html=1;align=center;verticalAlign=middle;whiteSpace=wrap;rounded=0;" parent="1" vertex="1">
          <mxGeometry x="100.25" y="1975" width="200" height="30" as="geometry" />
        </mxCell>
        <mxCell id="FPDdRhnp6goipjoe5qOt-97" value="Logged in as: [Username]" style="text;html=1;align=center;verticalAlign=middle;whiteSpace=wrap;rounded=0;" parent="1" vertex="1">
          <mxGeometry x="332.5" y="1975" width="160" height="30" as="geometry" />
        </mxCell>
        <mxCell id="FPDdRhnp6goipjoe5qOt-98" value="&lt;font style=&quot;font-size: 12px;&quot;&gt;Logout&lt;/font&gt;" style="rounded=1;html=1;shadow=0;dashed=0;whiteSpace=wrap;fontSize=10;fillColor=#E6E6E6;align=center;strokeColor=#E6E6E6;fontColor=#333333;" parent="1" vertex="1">
          <mxGeometry x="520.25" y="1980" width="85.5" height="20" as="geometry" />
        </mxCell>
        <mxCell id="FPDdRhnp6goipjoe5qOt-99" value="Categories" style="html=1;shadow=0;dashed=0;shape=mxgraph.bootstrap.rrect;rSize=5;strokeColor=none;strokeWidth=1;fillColor=#6C767D;fontColor=#ffffff;whiteSpace=wrap;align=center;verticalAlign=middle;fontStyle=0;fontSize=14;spacingLeft=10;spacingRight=20;" parent="1" vertex="1">
          <mxGeometry x="160.25" y="2040" width="415" height="30" as="geometry" />
        </mxCell>
        <mxCell id="FPDdRhnp6goipjoe5qOt-100" value="" style="shape=triangle;direction=south;fillColor=#ffffff;strokeColor=none;perimeter=none;" parent="FPDdRhnp6goipjoe5qOt-99" vertex="1">
          <mxGeometry x="1" y="0.5" width="10" height="5" relative="1" as="geometry">
            <mxPoint x="-17" y="-2.5" as="offset" />
          </mxGeometry>
        </mxCell>
        <mxCell id="FPDdRhnp6goipjoe5qOt-101" value="" style="swimlane;container=1;shape=mxgraph.bootstrap.rrect;rSize=5;strokeColor=#999999;fillColor=#ffffff;fontStyle=0;childLayout=stackLayout;horizontal=1;startSize=0;horizontalStack=0;resizeParent=1;resizeParentMax=0;resizeLast=0;collapsible=0;marginBottom=0;whiteSpace=wrap;html=1;" parent="1" vertex="1">
          <mxGeometry x="163.25" y="2070" width="410" height="30" as="geometry" />
        </mxCell>
        <mxCell id="FPDdRhnp6goipjoe5qOt-102" value="Classic American Cars [selected]" style="text;align=center;verticalAlign=middle;spacingLeft=10;spacingRight=10;overflow=hidden;points=[[0,0.5],[1,0.5]];portConstraint=eastwest;rotatable=0;whiteSpace=wrap;html=1;fontColor=inherit;fontSize=14;fontStyle=0;" parent="FPDdRhnp6goipjoe5qOt-101" vertex="1">
          <mxGeometry width="410" height="30" as="geometry" />
        </mxCell>
        <mxCell id="FPDdRhnp6goipjoe5qOt-106" value="&lt;font style=&quot;font-size: 13px;&quot;&gt;Ask a New Question&lt;/font&gt;" style="text;html=1;align=center;verticalAlign=middle;whiteSpace=wrap;rounded=0;" parent="1" vertex="1">
          <mxGeometry x="130.25" y="2120" width="201.25" height="30" as="geometry" />
        </mxCell>
        <mxCell id="FPDdRhnp6goipjoe5qOt-112" value="[Text Area]" style="text;html=1;align=center;verticalAlign=middle;whiteSpace=wrap;rounded=0;" parent="1" vertex="1">
          <mxGeometry x="336.75" y="2155" width="60" height="30" as="geometry" />
        </mxCell>
        <mxCell id="FPDdRhnp6goipjoe5qOt-113" style="edgeStyle=orthogonalEdgeStyle;rounded=0;orthogonalLoop=1;jettySize=auto;html=1;exitX=0.5;exitY=1;exitDx=0;exitDy=0;" parent="1" source="FPDdRhnp6goipjoe5qOt-112" target="FPDdRhnp6goipjoe5qOt-112" edge="1">
          <mxGeometry relative="1" as="geometry" />
        </mxCell>
        <mxCell id="FPDdRhnp6goipjoe5qOt-114" value="&quot;Type your question here&quot;" style="text;html=1;align=center;verticalAlign=middle;whiteSpace=wrap;rounded=0;" parent="1" vertex="1">
          <mxGeometry x="288" y="2180" width="154.5" height="30" as="geometry" />
        </mxCell>
        <mxCell id="FPDdRhnp6goipjoe5qOt-115" value="[Error: Question must not be empty and must end with a question mark]" style="text;html=1;align=center;verticalAlign=middle;whiteSpace=wrap;rounded=0;" parent="1" vertex="1">
          <mxGeometry x="271.88" y="2210" width="206.75" height="30" as="geometry" />
        </mxCell>
        <mxCell id="FPDdRhnp6goipjoe5qOt-116" value="&lt;font style=&quot;font-size: 12px;&quot;&gt;Submit Question&lt;/font&gt;" style="rounded=1;html=1;shadow=0;dashed=0;whiteSpace=wrap;fontSize=10;fillColor=#E6E6E6;align=center;strokeColor=#E6E6E6;fontColor=#333333;" parent="1" vertex="1">
          <mxGeometry x="227.5" y="2260" width="105.5" height="20" as="geometry" />
        </mxCell>
        <mxCell id="FPDdRhnp6goipjoe5qOt-118" value="&lt;font style=&quot;font-size: 12px;&quot;&gt;Cancel&lt;/font&gt;" style="rounded=1;html=1;shadow=0;dashed=0;whiteSpace=wrap;fontSize=10;fillColor=#E6E6E6;align=center;strokeColor=#E6E6E6;fontColor=#333333;" parent="1" vertex="1">
          <mxGeometry x="422.25" y="2260" width="105.5" height="20" as="geometry" />
        </mxCell>
        <mxCell id="FPDdRhnp6goipjoe5qOt-119" value="Window Title" style="strokeWidth=1;shadow=0;dashed=0;align=center;html=1;shape=mxgraph.mockup.containers.window;align=left;verticalAlign=top;spacingLeft=8;strokeColor2=#008cff;strokeColor3=#c4c4c4;fontColor=#666666;mainText=;fontSize=17;labelBackgroundColor=none;whiteSpace=wrap;" parent="1" vertex="1">
          <mxGeometry x="87.25" y="2390" width="550" height="380" as="geometry" />
        </mxCell>
        <mxCell id="FPDdRhnp6goipjoe5qOt-120" value="" style="rounded=0;whiteSpace=wrap;html=1;" parent="1" vertex="1">
          <mxGeometry x="87.25" y="2420" width="550" height="60" as="geometry" />
        </mxCell>
        <mxCell id="FPDdRhnp6goipjoe5qOt-121" value="&lt;font style=&quot;font-size: 15px;&quot;&gt;The Vintage Car Forum&lt;/font&gt;" style="text;html=1;align=center;verticalAlign=middle;whiteSpace=wrap;rounded=0;" parent="1" vertex="1">
          <mxGeometry x="97.25" y="2435" width="200" height="30" as="geometry" />
        </mxCell>
        <mxCell id="FPDdRhnp6goipjoe5qOt-122" value="Logged in as: [Username]" style="text;html=1;align=center;verticalAlign=middle;whiteSpace=wrap;rounded=0;" parent="1" vertex="1">
          <mxGeometry x="329.5" y="2435" width="160" height="30" as="geometry" />
        </mxCell>
        <mxCell id="FPDdRhnp6goipjoe5qOt-123" value="&lt;font style=&quot;font-size: 12px;&quot;&gt;Logout&lt;/font&gt;" style="rounded=1;html=1;shadow=0;dashed=0;whiteSpace=wrap;fontSize=10;fillColor=#E6E6E6;align=center;strokeColor=#E6E6E6;fontColor=#333333;" parent="1" vertex="1">
          <mxGeometry x="517.25" y="2440" width="85.5" height="20" as="geometry" />
        </mxCell>
        <mxCell id="FPDdRhnp6goipjoe5qOt-124" value="Categories" style="html=1;shadow=0;dashed=0;shape=mxgraph.bootstrap.rrect;rSize=5;strokeColor=none;strokeWidth=1;fillColor=#6C767D;fontColor=#ffffff;whiteSpace=wrap;align=center;verticalAlign=middle;fontStyle=0;fontSize=14;spacingLeft=10;spacingRight=20;" parent="1" vertex="1">
          <mxGeometry x="157.25" y="2500" width="415" height="30" as="geometry" />
        </mxCell>
        <mxCell id="FPDdRhnp6goipjoe5qOt-125" value="" style="shape=triangle;direction=south;fillColor=#ffffff;strokeColor=none;perimeter=none;" parent="FPDdRhnp6goipjoe5qOt-124" vertex="1">
          <mxGeometry x="1" y="0.5" width="10" height="5" relative="1" as="geometry">
            <mxPoint x="-17" y="-2.5" as="offset" />
          </mxGeometry>
        </mxCell>
        <mxCell id="FPDdRhnp6goipjoe5qOt-126" value="" style="swimlane;container=1;shape=mxgraph.bootstrap.rrect;rSize=5;strokeColor=#999999;fillColor=#ffffff;fontStyle=0;childLayout=stackLayout;horizontal=1;startSize=0;horizontalStack=0;resizeParent=1;resizeParentMax=0;resizeLast=0;collapsible=0;marginBottom=0;whiteSpace=wrap;html=1;" parent="1" vertex="1">
          <mxGeometry x="160.25" y="2530" width="410" height="30" as="geometry" />
        </mxCell>
        <mxCell id="FPDdRhnp6goipjoe5qOt-127" value="Classic American Cars [selected]" style="text;align=center;verticalAlign=middle;spacingLeft=10;spacingRight=10;overflow=hidden;points=[[0,0.5],[1,0.5]];portConstraint=eastwest;rotatable=0;whiteSpace=wrap;html=1;fontColor=inherit;fontSize=14;fontStyle=0;" parent="FPDdRhnp6goipjoe5qOt-126" vertex="1">
          <mxGeometry width="410" height="30" as="geometry" />
        </mxCell>
        <mxCell id="FPDdRhnp6goipjoe5qOt-128" value="&lt;font style=&quot;font-size: 13px;&quot;&gt;Question:&lt;/font&gt;" style="text;html=1;align=center;verticalAlign=middle;whiteSpace=wrap;rounded=0;" parent="1" vertex="1">
          <mxGeometry x="128.25" y="2565" width="201.25" height="30" as="geometry" />
        </mxCell>
        <mxCell id="FPDdRhnp6goipjoe5qOt-129" value="&lt;font style=&quot;font-size: 13px;&quot;&gt;&quot;What is the best engine for a 1967 Mustang?&lt;/font&gt;" style="text;html=1;align=center;verticalAlign=middle;whiteSpace=wrap;rounded=0;" parent="1" vertex="1">
          <mxGeometry x="234.5" y="2590" width="300" height="30" as="geometry" />
        </mxCell>
        <mxCell id="FPDdRhnp6goipjoe5qOt-130" style="edgeStyle=orthogonalEdgeStyle;rounded=0;orthogonalLoop=1;jettySize=auto;html=1;exitX=0.5;exitY=1;exitDx=0;exitDy=0;" parent="1" source="FPDdRhnp6goipjoe5qOt-129" target="FPDdRhnp6goipjoe5qOt-129" edge="1">
          <mxGeometry relative="1" as="geometry" />
        </mxCell>
        <mxCell id="FPDdRhnp6goipjoe5qOt-131" value="&lt;font&gt;[Answer]&lt;/font&gt;" style="text;html=1;align=center;verticalAlign=middle;whiteSpace=wrap;rounded=0;" parent="1" vertex="1">
          <mxGeometry x="292.25" y="2610" width="154.5" height="30" as="geometry" />
        </mxCell>
        <mxCell id="FPDdRhnp6goipjoe5qOt-135" value="&lt;font style=&quot;font-size: 13px;&quot;&gt;Answers:&lt;/font&gt;" style="text;html=1;align=center;verticalAlign=middle;whiteSpace=wrap;rounded=0;" parent="1" vertex="1">
          <mxGeometry x="196" y="2640" width="60" height="30" as="geometry" />
        </mxCell>
        <mxCell id="FPDdRhnp6goipjoe5qOt-136" value="&lt;font style=&quot;font-size: 13px;&quot;&gt;1. The 289 V8 is a great engine option for that year.&lt;/font&gt;&lt;div&gt;&lt;span style=&quot;font-size: 13px;&quot;&gt;&lt;br&gt;&lt;/span&gt;&lt;div&gt;&lt;font style=&quot;font-size: 13px;&quot;&gt;2. I prefer the 302 Cleveland engine personally.&lt;/font&gt;&lt;/div&gt;&lt;/div&gt;" style="text;html=1;align=center;verticalAlign=middle;whiteSpace=wrap;rounded=0;" parent="1" vertex="1">
          <mxGeometry x="234.5" y="2680" width="300" height="30" as="geometry" />
        </mxCell>
        <mxCell id="FPDdRhnp6goipjoe5qOt-138" value="Window Title" style="strokeWidth=1;shadow=0;dashed=0;align=center;html=1;shape=mxgraph.mockup.containers.window;align=left;verticalAlign=top;spacingLeft=8;strokeColor2=#008cff;strokeColor3=#c4c4c4;fontColor=#666666;mainText=;fontSize=17;labelBackgroundColor=none;whiteSpace=wrap;" parent="1" vertex="1">
          <mxGeometry x="88.5" y="2850" width="550" height="380" as="geometry" />
        </mxCell>
        <mxCell id="FPDdRhnp6goipjoe5qOt-149" style="edgeStyle=orthogonalEdgeStyle;rounded=0;orthogonalLoop=1;jettySize=auto;html=1;exitX=0.5;exitY=1;exitDx=0;exitDy=0;" parent="1" edge="1">
          <mxGeometry relative="1" as="geometry">
            <mxPoint x="385.75" y="3080" as="sourcePoint" />
            <mxPoint x="385.75" y="3080" as="targetPoint" />
          </mxGeometry>
        </mxCell>
        <mxCell id="FPDdRhnp6goipjoe5qOt-156" value="&lt;font face=&quot;Verdana&quot; style=&quot;font-size: 13px;&quot;&gt;Answer this question:&lt;/font&gt;&lt;div&gt;&lt;font face=&quot;Verdana&quot; style=&quot;font-size: 13px;&quot;&gt;&lt;br&gt;&lt;/font&gt;&lt;/div&gt;&lt;div&gt;&lt;font face=&quot;Verdana&quot; style=&quot;&quot;&gt;&lt;font&gt;&lt;span style=&quot;white-space: pre;&quot;&gt;&#x9;&lt;/span&gt;&lt;span style=&quot;white-space: pre;&quot;&gt;&#x9;&lt;span style=&quot;white-space: pre;&quot;&gt;&#x9;&lt;/span&gt;&lt;/span&gt;[Text Area: &quot;type your answer here...]&lt;/font&gt;&lt;br&gt;&lt;/font&gt;&lt;/div&gt;&lt;div&gt;&lt;font face=&quot;Verdana&quot; style=&quot;&quot;&gt;&lt;font&gt;&lt;span style=&quot;white-space: pre;&quot;&gt;&#x9;&lt;/span&gt;&lt;span style=&quot;white-space: pre;&quot;&gt;&#x9;&lt;/span&gt;&lt;span style=&quot;white-space: pre;&quot;&gt;&#x9;&lt;/span&gt;[Error: Answer cannot be empty]&lt;br&gt;&lt;/font&gt;&lt;/font&gt;&lt;/div&gt;" style="html=1;rounded=1;fillColor=#ffffff;strokeColor=#DFE1E5;fontSize=12;align=left;fontColor=#000000;shadow=1;arcSize=1;whiteSpace=wrap;spacing=20;verticalAlign=top;spacingTop=30;sketch=1;hachureGap=4;pointerEvents=0;fontFamily=Architects Daughter;fontSource=https%3A%2F%2Ffonts.googleapis.com%2Fcss%3Ffamily%3DArchitects%2BDaughter;" parent="1" vertex="1">
          <mxGeometry x="130.75" y="2930" width="470" height="190" as="geometry" />
        </mxCell>
        <mxCell id="FPDdRhnp6goipjoe5qOt-158" value="&lt;font style=&quot;font-size: 13px;&quot; face=&quot;Verdana&quot;&gt;Cancel&lt;/font&gt;" style="dashed=0;html=1;rounded=1;fillColor=none;strokeColor=none;fontSize=12;align=center;fontStyle=0;strokeWidth=2;fontColor=#596780;sketch=1;hachureGap=4;pointerEvents=0;fontFamily=Architects Daughter;fontSource=https%3A%2F%2Ffonts.googleapis.com%2Fcss%3Ffamily%3DArchitects%2BDaughter;" parent="FPDdRhnp6goipjoe5qOt-156" vertex="1">
          <mxGeometry x="1" y="1" width="50" height="33" relative="1" as="geometry">
            <mxPoint x="-210" y="-56" as="offset" />
          </mxGeometry>
        </mxCell>
        <mxCell id="FPDdRhnp6goipjoe5qOt-160" value="&lt;font style=&quot;font-weight: normal;&quot; face=&quot;Verdana&quot;&gt;Modal Window&lt;/font&gt;" style="dashed=0;html=1;fillColor=none;strokeColor=none;fontSize=18;align=center;fontStyle=1;fontColor=#000000;sketch=1;hachureGap=4;pointerEvents=0;fontFamily=Architects Daughter;fontSource=https%3A%2F%2Ffonts.googleapis.com%2Fcss%3Ffamily%3DArchitects%2BDaughter;" parent="FPDdRhnp6goipjoe5qOt-156" vertex="1">
          <mxGeometry width="290" height="33" relative="1" as="geometry">
            <mxPoint x="90" y="13" as="offset" />
          </mxGeometry>
        </mxCell>
        <mxCell id="FPDdRhnp6goipjoe5qOt-164" value="&lt;font style=&quot;font-size: 13px;&quot; face=&quot;Verdana&quot;&gt;Submit&lt;/font&gt;" style="dashed=0;html=1;rounded=1;fillColor=none;strokeColor=none;fontSize=12;align=center;fontStyle=0;strokeWidth=2;fontColor=#596780;sketch=1;hachureGap=4;pointerEvents=0;fontFamily=Architects Daughter;fontSource=https%3A%2F%2Ffonts.googleapis.com%2Fcss%3Ffamily%3DArchitects%2BDaughter;" parent="FPDdRhnp6goipjoe5qOt-156" vertex="1">
          <mxGeometry x="1" y="1" width="50" height="33" relative="1" as="geometry">
            <mxPoint x="-300" y="-56" as="offset" />
          </mxGeometry>
        </mxCell>
        <mxCell id="eDzkyQGFLZuuTqPz9SH3-2" value="&lt;font style=&quot;font-size: 17px;&quot;&gt;(Login Screen)&lt;/font&gt;" style="text;html=1;align=center;verticalAlign=middle;whiteSpace=wrap;rounded=0;" vertex="1" parent="1">
          <mxGeometry x="235.75" y="40" width="292" height="30" as="geometry" />
        </mxCell>
        <mxCell id="eDzkyQGFLZuuTqPz9SH3-4" value="&lt;font style=&quot;font-size: 15px;&quot;&gt;Successful Login&lt;/font&gt;" style="text;html=1;align=center;verticalAlign=middle;whiteSpace=wrap;rounded=0;rotation=90;" vertex="1" parent="1">
          <mxGeometry x="549.5" y="815" width="370" height="30" as="geometry" />
        </mxCell>
        <mxCell id="eDzkyQGFLZuuTqPz9SH3-9" value="" style="strokeWidth=3;html=1;shape=mxgraph.flowchart.annotation_1;align=left;pointerEvents=1;fillColor=#dae8fc;strokeColor=#6c8ebf;" vertex="1" parent="1">
          <mxGeometry x="60" y="310" width="30" height="360" as="geometry" />
        </mxCell>
        <mxCell id="eDzkyQGFLZuuTqPz9SH3-10" value="&lt;font style=&quot;font-size: 14px;&quot;&gt;Register if new user&lt;/font&gt;" style="text;html=1;align=center;verticalAlign=middle;whiteSpace=wrap;rounded=0;rotation=270;" vertex="1" parent="1">
          <mxGeometry x="-61.75" y="470" width="190" height="40" as="geometry" />
        </mxCell>
        <mxCell id="eDzkyQGFLZuuTqPz9SH3-11" value="&lt;font style=&quot;font-size: 17px;&quot;&gt;(Register to Vintage Car Forum)&lt;/font&gt;" style="text;html=1;align=center;verticalAlign=middle;whiteSpace=wrap;rounded=0;" vertex="1" parent="1">
          <mxGeometry x="244.25" y="480" width="257" height="30" as="geometry" />
        </mxCell>
        <mxCell id="eDzkyQGFLZuuTqPz9SH3-12" value="&lt;font style=&quot;font-size: 17px;&quot;&gt;Dashboard&lt;/font&gt;" style="text;html=1;align=center;verticalAlign=middle;whiteSpace=wrap;rounded=0;" vertex="1" parent="1">
          <mxGeometry x="278.12" y="940" width="185.25" height="30" as="geometry" />
        </mxCell>
        <mxCell id="eDzkyQGFLZuuTqPz9SH3-16" value="" style="strokeWidth=3;html=1;shape=mxgraph.flowchart.annotation_1;align=left;pointerEvents=1;direction=west;fillColor=#d5e8d4;strokeColor=#82b366;" vertex="1" parent="1">
          <mxGeometry x="640" y="1225" width="70" height="450" as="geometry" />
        </mxCell>
        <mxCell id="eDzkyQGFLZuuTqPz9SH3-17" value="&lt;font style=&quot;font-size: 13px;&quot;&gt;Category&lt;br&gt;Questions Screen&lt;/font&gt;" style="text;html=1;align=center;verticalAlign=middle;whiteSpace=wrap;rounded=0;rotation=90;" vertex="1" parent="1">
          <mxGeometry x="594.5" y="1430" width="280" height="30" as="geometry" />
        </mxCell>
        <mxCell id="eDzkyQGFLZuuTqPz9SH3-18" value="" style="strokeWidth=3;html=1;shape=mxgraph.flowchart.annotation_1;align=left;pointerEvents=1;direction=west;fillColor=#d5e8d4;strokeColor=#82b366;" vertex="1" parent="1">
          <mxGeometry x="640" y="1675" width="70" height="450" as="geometry" />
        </mxCell>
        <mxCell id="eDzkyQGFLZuuTqPz9SH3-19" value="&lt;font style=&quot;font-size: 14px;&quot;&gt;New&amp;nbsp; Question Form&lt;/font&gt;" style="text;html=1;align=center;verticalAlign=middle;whiteSpace=wrap;rounded=0;rotation=90;" vertex="1" parent="1">
          <mxGeometry x="592.75" y="1870" width="280" height="30" as="geometry" />
        </mxCell>
        <mxCell id="eDzkyQGFLZuuTqPz9SH3-20" value="" style="strokeWidth=3;html=1;shape=mxgraph.flowchart.annotation_1;align=left;pointerEvents=1;direction=west;fillColor=#d5e8d4;strokeColor=#82b366;" vertex="1" parent="1">
          <mxGeometry x="640" y="2125" width="70" height="450" as="geometry" />
        </mxCell>
        <mxCell id="eDzkyQGFLZuuTqPz9SH3-21" value="&#xa;&#xa;&lt;p style=&quot;margin:0in;font-family:Calibri;font-size:11.0pt&quot;&gt;Category&#xa;Questions Screen&lt;/p&gt;&#xa;&#xa;&#xa;&#xa;&#xa;" style="text;html=1;align=center;verticalAlign=middle;whiteSpace=wrap;rounded=0;rotation=90;" vertex="1" parent="1">
          <mxGeometry x="562.75" y="2292.5" width="310" height="127.5" as="geometry" />
        </mxCell>
        <mxCell id="eDzkyQGFLZuuTqPz9SH3-23" value="" style="endArrow=classic;html=1;rounded=0;exitX=1;exitY=0;exitDx=0;exitDy=0;exitPerimeter=0;strokeColor=#3333FF;strokeWidth=3;" edge="1" parent="1" source="eDzkyQGFLZuuTqPz9SH3-20">
          <mxGeometry width="50" height="50" relative="1" as="geometry">
            <mxPoint x="380" y="2850" as="sourcePoint" />
            <mxPoint x="640" y="3100" as="targetPoint" />
            <Array as="points">
              <mxPoint x="710" y="2575" />
              <mxPoint x="710" y="2840" />
              <mxPoint x="710" y="3100" />
            </Array>
          </mxGeometry>
        </mxCell>
        <mxCell id="eDzkyQGFLZuuTqPz9SH3-24" value="(Click Answer)&amp;nbsp;" style="text;html=1;align=center;verticalAlign=middle;whiteSpace=wrap;rounded=0;rotation=90;" vertex="1" parent="1">
          <mxGeometry x="649.5" y="2810" width="170" height="30" as="geometry" />
        </mxCell>
        <mxCell id="eDzkyQGFLZuuTqPz9SH3-25" value="&lt;font style=&quot;font-size: 17px;&quot;&gt;Modal View&lt;/font&gt;" style="text;html=1;align=center;verticalAlign=middle;whiteSpace=wrap;rounded=0;" vertex="1" parent="1">
          <mxGeometry x="283.25" y="2800" width="170" height="30" as="geometry" />
        </mxCell>
        <mxCell id="eDzkyQGFLZuuTqPz9SH3-26" value="&lt;font style=&quot;font-size: 17px;&quot;&gt;Category Questions/Answers&lt;/font&gt;" style="text;html=1;align=center;verticalAlign=middle;whiteSpace=wrap;rounded=0;" vertex="1" parent="1">
          <mxGeometry x="221.87" y="2341.25" width="297.75" height="30" as="geometry" />
        </mxCell>
      </root>
    </mxGraphModel>
  </diagram>
</mxfile>
